Coordinates
version=1
nRows=22
nColumns=24
inDegrees=yes

Units are S.I. units (second, meters, Newtons, ...)
Angles are in degrees.

endheader
time	pelvis_tilt	pelvis_list	pelvis_rotation	pelvis_tx	pelvis_ty	pelvis_tz	hip_flexion_r	hip_adduction_r	hip_rotation_r	knee_angle_r	ankle_angle_r	subtalar_angle_r	mtp_angle_r	hip_flexion_l	hip_adduction_l	hip_rotation_l	knee_angle_l	ankle_angle_l	subtalar_angle_l	mtp_angle_l	lumbar_extension	lumbar_bending	lumbar_rotation
      3.88000000	    -18.18846787	     -0.72543637	     -2.51525993	     -1.37617140	      0.00164384	     -0.25300572	      9.14314675	      7.65858883	     11.69494651	     -8.49975835	      1.65504103	     -6.59929499	      2.01178129	     42.79271851	      2.58998074	      4.67265649	    -50.06224016	     12.61658235	      8.72258814	    -61.42433446	     13.07828971	     -0.22788929	      7.02634079
      3.88500000	    -18.06818869	     -0.62206022	     -2.72097047	     -1.36902800	      0.00199687	     -0.25305923	      8.21187464	      7.47347995	     11.53228411	     -7.91520687	      1.42592979	     -6.24098712	      1.91415510	     42.92424492	      2.55487146	      4.63449175	    -48.42447989	     12.85435567	      8.60762015	    -61.57034279	     12.94780881	     -0.22872779	      7.23321279
      3.89000000	    -17.94521199	     -0.52716964	     -2.91639275	     -1.36186865	      0.00223243	     -0.25311621	      7.30234923	      7.29485386	     11.34592976	     -7.37756057	      1.22515934	     -5.83872645	      1.87527282	     43.01846287	      2.51229654	      4.61296966	    -46.71908375	     13.03622498	      8.47898920	    -61.71448039	     12.81492046	     -0.22622634	      7.42151320
      3.89500000	    -17.81848719	     -0.43372996	     -3.10827430	     -1.35469740	      0.00235328	     -0.25319409	      6.42001323	      7.11624379	     11.13347906	     -6.89770425	      1.05713764	     -5.40236192	      1.90078968	     43.07033813	      2.46868788	      4.60980349	    -44.94287950	     13.16651094	      8.34510508	    -61.85689148	     12.67561056	     -0.21949574	      7.59609495
      3.90000000	    -17.70862311	     -0.34908238	     -3.28611901	     -1.34752635	      0.00233244	     -0.25328763	      5.58677640	      6.94565234	     10.91621648	     -6.47549457	      0.90861826	     -4.94818455	      1.98206781	     43.10943172	      2.41715014	      4.62164872	    -43.10626278	     13.23960132	      8.22658348	    -61.98259652	     12.55374909	     -0.20735951	      7.75887256
      3.90500000	    -17.57884607	     -0.25245300	     -3.47632452	     -1.34034861	      0.00221871	     -0.25335930	      4.76499907	      6.76532480	     10.68428487	     -6.11262261	      0.80906080	     -4.46522523	      2.13862890	     43.08590277	      2.36668844	      4.64591609	    -41.20025321	     13.25028700	      8.11021859	    -62.10233476	     12.40843860	     -0.20291877	      7.90510955
      3.91000000	    -17.47360487	     -0.16500414	     -3.65384326	     -1.33317285	      0.00195421	     -0.25344270	      4.00284989	      6.59632846	     10.45987088	     -5.81289243	      0.72661568	     -3.99147149	      2.34675254	     43.05994690	      2.30688890	      4.69007324	    -39.24502760	     13.21321414	      8.03417342	    -62.19987131	     12.28736517	     -0.19229185	      8.04459115
      3.91500000	    -17.37564256	     -0.07855549	     -3.83172688	     -1.32599367	      0.00156807	     -0.25351935	      3.28005753	      6.43077337	     10.24896168	     -5.57244377	      0.66745093	     -3.52415549	      2.60858033	     43.00950051	      2.23824968	      4.74676571	    -37.24110484	     13.13713694	      7.99870872	    -62.27395062	     12.17108182	     -0.18066350	      8.17757444
      3.92000000	    -17.29354128	      0.01343238	     -4.00859996	     -1.31881944	      0.00105763	     -0.25359302	      2.60850681	      6.26279025	     10.06504753	     -5.39658871	      0.63217801	     -3.08568538	      2.90921988	     42.94698356	      2.16723859	      4.81743473	    -35.19490846	     13.03219224	      8.02120323	    -62.32272738	     12.06870990	     -0.17320709	      8.30849032
      3.92500000	    -17.16608474	      0.08289388	     -4.16197386	     -1.31168012	      0.00046954	     -0.25369408	      1.92985037	      6.11774872	      9.78235743	     -5.28882610	      0.60720406	     -2.61402183	      3.46912251	     42.81378531	      2.09109298	      4.95746800	    -33.12808770	     12.96245887	      8.14695397	    -62.33052682	     11.90385970	     -0.15418488	      8.41768366
      3.93000000	    -17.11291301	      0.19965900	     -4.34277237	     -1.30451204	     -0.00026688	     -0.25373002	      1.35291847	      5.93078699	      9.65776710	     -5.22215306	      0.57953689	     -2.27402982	      4.02654110	     42.73102661	      2.02163799	      5.05148486	    -31.02263786	     12.85686735	      8.31264277	    -62.31237765	     11.82675932	     -0.17584068	      8.54597825
      3.93500000	    -17.19179661	      0.32322909	     -4.54740399	     -1.29732956	     -0.00124368	     -0.25369834	      0.94773970	      5.75905793	      9.68592941	     -5.23038485	      0.59645354	     -2.07178424	      4.24700060	     42.78354211	      1.91827275	      5.10737314	    -28.92909928	     12.79521718	      8.56444315	    -62.31635149	     11.89921916	     -0.19088820	      8.67864999
      3.94000000	    -17.08113920	      0.43050221	     -4.72584337	     -1.29020747	     -0.00209259	     -0.25372647	      0.36595507	      5.57938080	      9.55646643	     -5.26764038	      0.62147659	     -1.70518073	      4.82549893	     42.61097630	      1.83730273	      5.26369950	    -26.82737951	     12.79323324	      8.89308273	    -62.28055037	     11.74131140	     -0.21200095	      8.81299959
      3.94500000	    -17.19823615	      0.56604550	     -4.92768522	     -1.28307475	     -0.00327449	     -0.25364318	      0.06390184	      5.40577100	      9.63706640	     -5.38795193	      0.68207096	     -1.55494086	      5.08162523	     42.70234464	      1.72070308	      5.30967392	    -24.77758032	     12.80341394	      9.36892403	    -62.28737844	     11.83861341	     -0.24777511	      8.94861372
      3.95000000	    -17.23596599	      0.69387118	     -5.15477763	     -1.27598353	     -0.00444347	     -0.25353500	     -0.29216025	      5.23320107	      9.71718508	     -5.55992678	      0.76552879	     -1.35086696	      5.41889389	     42.69872283	      1.58665107	      5.38044208	    -22.75313996	     12.88691722	      9.90652988	    -62.30196425	     11.83688206	     -0.27806119	      9.13428064
      3.95500000	    -17.36598788	      0.73232573	     -5.28444307	     -1.26892566	     -0.00587842	     -0.25351098	     -0.55161372	      5.17373302	      9.78311090	     -5.75617701	      0.84384426	     -1.27881977	      5.57228234	     42.83938990	      1.43242387	      5.61945590	    -20.84558260	     13.04305798	     10.58599197	    -62.30779703	     11.91704210	     -0.23533862	      9.20469779
      3.96000000	    -17.42936220	      0.92368386	     -5.60810978	     -1.26179551	     -0.00716132	     -0.25328710	     -0.80829560	      4.93507704	      9.99235871	     -6.05195476	      0.97016843	     -1.05016956	      5.96806419	     42.84434730	      1.27903118	      5.54962251	    -18.88042652	     13.14805220	     11.17404665	    -62.37382727	     11.94535825	     -0.30374107	      9.47298626
      3.96500000	    -17.40324480	      1.06089172	     -5.80645407	     -1.25460100	     -0.00849676	     -0.25319895	     -1.20274372	      4.72679085	      9.95050483	     -6.21788057	      0.80460689	     -0.89873617	      7.76190872	     42.78911612	      1.16909979	      5.56722164	    -17.03455479	     13.41008707	     11.93203310	    -62.84854099	     11.86967118	     -0.36164754	      9.62506822
      3.97000000	    -17.62634455	      1.18876090	     -6.10398749	     -1.24749281	     -0.01013759	     -0.25298458	     -1.25559714	      4.58131594	     10.29810279	     -6.59741470	      0.92597375	     -0.86164813	      7.98640676	     42.98496970	      0.98108281	      5.74700163	    -15.22460741	     13.52604595	     12.44633762	    -62.91418701	     12.05464616	     -0.36190982	      9.86766688
      3.97500000	    -17.77906085	      1.32701149	     -6.40370213	     -1.24031839	     -0.01173791	     -0.25274216	     -1.37809328	      4.41023838	     10.60994658	     -6.98453399	      1.04272777	     -0.73054259	      8.28424061	     43.11426697	      0.79976364	      5.84721240	    -13.50840328	     13.67329196	     13.01094197	    -63.00016982	     12.16619962	     -0.38390595	     10.11787434
      3.98000000	    -17.92504124	      1.47703863	     -6.71720058	     -1.23309034	     -0.01336596	     -0.25248583	     -1.48857517	      4.22074047	     10.92861702	     -7.40445799	      1.16154109	     -0.55089926	      8.64498085	     43.24016504	      0.62383933	      5.94584156	    -11.88720393	     13.82846249	     13.52555503	    -63.10056259	     12.27415571	     -0.41482715	     10.38888352
      3.98500000	    -18.04721434	      1.70079942	     -6.97250694	     -1.22563170	     -0.01501561	     -0.25233834	     -1.63675975	      3.91489124	     11.00404202	     -7.72524703	      1.05042381	     -0.29945788	     10.59138566	     43.34501664	      0.56491063	      5.99173094	    -10.36929693	     14.06297368	     13.98282264	    -63.79441620	     12.39173043	     -0.53612944	     10.60920339
